<svg xmlns="http://www.w3.org/2000/svg" xmlns:xlink="http://www.w3.org/1999/xlink" width="500" zoomAndPan="magnify" viewBox="0 0 375 374.999991" height="500" preserveAspectRatio="xMidYMid meet" version="1.0"><path fill="#000000" d="M 270.832031 291.667969 L 270.832031 270.832031 L 208.332031 270.832031 L 208.332031 208.332031 L 270.832031 208.332031 L 270.832031 250 L 312.5 250 L 312.5 291.667969 L 291.667969 291.667969 L 291.667969 333.332031 L 250 333.332031 L 250 375 L 208.332031 375 L 208.332031 312.5 L 250 312.5 L 250 291.667969 Z M 375 375 L 291.667969 375 L 291.667969 333.332031 L 333.332031 333.332031 L 333.332031 291.667969 L 375 291.667969 Z M 0 0 L 166.667969 0 L 166.667969 166.667969 L 0 166.667969 Z M 208.332031 0 L 375 0 L 375 166.667969 L 208.332031 166.667969 Z M 0 208.332031 L 166.667969 208.332031 L 166.667969 375 L 0 375 Z M 312.5 208.332031 L 375 208.332031 L 375 250 L 312.5 250 Z M 62.5 62.5 L 62.5 104.167969 L 104.167969 104.167969 L 104.167969 62.5 Z M 62.5 270.832031 L 62.5 312.5 L 104.167969 312.5 L 104.167969 270.832031 Z M 270.832031 62.5 L 270.832031 104.167969 L 312.5 104.167969 L 312.5 62.5 Z M 270.832031 62.5 " fill-opacity="1" fill-rule="nonzero"/></svg>